<svg width="53" height="53" viewBox="0 0 53 53" fill="none" xmlns="http://www.w3.org/2000/svg">
<circle cx="26.5" cy="26.5" r="26.5" fill="#FFE7BB"/>
<path d="M32.3152 21.0861C31.8611 20.1442 31.3355 19.2352 30.7412 18.3655C31.2561 16.8642 32.1097 15.4887 33.2641 14.3343C34.2674 13.3311 35.4375 12.5548 36.7121 12.0306C37.2443 12.563 37.7327 13.1391 38.1723 13.7523C34.9817 14.7709 32.6084 17.6366 32.3152 21.0861Z" fill="#054E58"/>
<path d="M36.5107 21.8082V30.2622C36.5107 35.5065 32.2441 39.7729 26.9999 39.7729C21.7557 39.7729 17.4892 35.5064 17.4892 30.2622C17.4892 27.9314 15.5929 26.0352 13.2622 26.0352V23.9217C16.7584 23.9217 19.6027 26.7661 19.6027 30.2622C19.6027 34.341 22.9211 37.6594 27 37.6594C31.0789 37.6594 34.3973 34.341 34.3973 30.2622V21.8082C34.3973 18.8051 36.4958 16.2831 39.3035 15.6313C39.622 16.2705 39.8927 16.9374 40.1097 17.628C38.0757 17.9325 36.5107 19.6909 36.5107 21.8082Z" fill="#054E58"/>
<path d="M31.7693 12.8397C31.0614 13.5476 30.4389 14.3357 29.9194 15.1819L29.2159 16.3278L28.2099 15.3144C25.7826 12.8872 22.8668 11.1248 19.6836 10.1154C20.502 9.59843 21.3781 9.16495 22.3006 8.82809C24.6787 9.83018 26.8886 11.2323 28.8448 13.0021C29.2791 12.417 29.7574 11.8626 30.2748 11.3453C31.0578 10.5623 31.9133 9.87806 32.8261 9.29855C33.566 9.64652 34.2704 10.0579 34.9313 10.5268C33.7786 11.1213 32.7124 11.8966 31.7693 12.8397Z" fill="#054E58"/>
<path d="M27 44C19.425 44 13.2622 37.8373 13.2622 30.2622V28.1487C14.4276 28.1487 15.3757 29.0968 15.3757 30.2622C15.3757 36.6718 20.5904 41.8865 27 41.8865C33.4096 41.8865 38.6243 36.6718 38.6243 30.2622V21.8082C38.6243 20.6937 39.4915 19.7786 40.5866 19.7006C40.6858 20.3654 40.7378 21.0456 40.7378 21.7377V30.2622C40.7378 37.8373 34.575 44 27 44Z" fill="#054E58"/>
<path d="M27 35.546C24.0865 35.546 21.7162 33.1757 21.7162 30.2622C21.7162 25.6007 17.9238 21.8082 13.2622 21.8082V21.7378C13.2622 21.0443 13.3143 20.3627 13.414 19.6965C16.1819 19.7352 18.777 20.8291 20.7361 22.7882C22.731 24.7831 23.8297 27.4374 23.8297 30.2622C23.8297 32.0104 25.2519 33.4325 26.9999 33.4325C28.748 33.4325 30.1702 32.0103 30.1702 30.2622C30.1702 21.8575 24.0056 14.8664 15.9606 13.5705C16.4502 12.9105 16.9976 12.2959 17.5951 11.7338C21.023 12.5273 24.1681 14.2616 26.7154 16.8089C30.3061 20.3997 32.2836 25.1775 32.2836 30.2622C32.2838 33.1757 29.9135 35.546 27 35.546Z" fill="#054E58"/>
<path d="M28.7805 9.85082C28.7162 9.91502 28.6524 9.97985 28.5892 10.0452C27.6297 9.31525 26.6224 8.6572 25.5728 8.07388C26.042 8.02523 26.5181 7.99999 27.0001 7.99999C28.173 7.99999 29.3118 8.14806 30.3993 8.42594C29.8321 8.86567 29.2902 9.3412 28.7805 9.85082Z" fill="#054E58"/>
<path d="M27 31.319C26.4164 31.319 25.9433 30.8458 25.9433 30.2622C25.9433 23.4839 20.5974 17.9308 13.9004 17.5972C14.126 16.8848 14.4083 16.1974 14.7419 15.5402C18.1372 15.8745 21.2844 17.357 23.7259 19.7985C26.5187 22.5914 28.0568 26.3075 28.0568 30.2622C28.0568 30.8458 27.5836 31.319 27 31.319Z" fill="#054E58"/>
</svg>
