<svg width="106" height="43" viewBox="0 0 106 43" fill="none" xmlns="http://www.w3.org/2000/svg">
<g clip-path="url(#clip0_394_22521)">
<path d="M19.3152 13.086C18.8611 12.1441 18.3355 11.2352 17.7412 10.3655C18.2561 8.86416 19.1097 7.48863 20.2641 6.33424C21.2674 5.33102 22.4375 4.5547 23.7121 4.03052C24.2443 4.56293 24.7327 5.139 25.1723 5.75226C21.9817 6.77088 19.6084 9.63654 19.3152 13.086Z" fill="#FFE7BB"/>
<path d="M23.5112 13.8082V22.2622C23.5112 27.5065 19.2446 31.7729 14.0004 31.7729C8.75623 31.7729 4.48967 27.5064 4.48967 22.2622C4.48967 19.9314 2.59341 18.0352 0.262695 18.0352V15.9217C3.75884 15.9217 6.60319 18.7661 6.60319 22.2622C6.60319 26.341 9.92159 29.6594 14.0005 29.6594C18.0794 29.6594 21.3978 26.341 21.3978 22.2622V13.8082C21.3978 10.8051 23.4963 8.28309 26.304 7.63129C26.6225 8.2705 26.8932 8.93742 27.1102 9.62803C25.0762 9.93248 23.5112 11.6909 23.5112 13.8082Z" fill="#FFE7BB"/>
<path d="M18.7693 4.83976C18.0614 5.54766 17.4389 6.33573 16.9194 7.18201L16.2159 8.32782L15.2099 7.31448C12.7826 4.88722 9.86678 3.12484 6.68359 2.1155C7.50203 1.59849 8.37813 1.16502 9.30063 0.828149C11.6787 1.83024 13.8886 3.23234 15.8448 5.00218C16.2791 4.41711 16.7574 3.86269 17.2748 3.34534C18.0578 2.56234 18.9133 1.87812 19.8261 1.29861C20.566 1.64658 21.2704 2.05791 21.9313 2.5269C20.7786 3.12132 19.7124 3.89666 18.7693 4.83976Z" fill="#FFE7BB"/>
<path d="M13.9995 36C6.42454 36 0.261719 29.8373 0.261719 22.2622V20.1487C1.42708 20.1487 2.37524 21.0968 2.37524 22.2622C2.37524 28.6718 7.5899 33.8865 13.9995 33.8865C20.4091 33.8865 25.6238 28.6718 25.6238 22.2622V13.8082C25.6238 12.6937 26.491 11.7786 27.5861 11.7006C27.6853 12.3654 27.7373 13.0456 27.7373 13.7377V22.2622C27.7373 29.8373 21.5745 36 13.9995 36Z" fill="#FFE7BB"/>
<path d="M13.9995 27.546C11.086 27.546 8.71574 25.1757 8.71574 22.2622C8.71574 17.6007 4.9233 13.8082 0.261719 13.8082V13.7377C0.261719 13.0442 0.31382 12.3627 0.413523 11.6965C3.18145 11.7351 5.77654 12.8291 7.73566 14.7882C9.73049 16.7831 10.8292 19.4374 10.8292 22.2622C10.8292 24.0103 12.2514 25.4324 13.9994 25.4324C15.7475 25.4324 17.1697 24.0102 17.1697 22.2622C17.1697 13.8575 11.0051 6.86635 2.9601 5.57042C3.44976 4.9104 3.99714 4.29587 4.59459 3.73379C8.02253 4.52727 11.1676 6.26152 13.7149 8.80888C17.3056 12.3997 19.2831 17.1774 19.2831 22.2622C19.2833 25.1757 16.913 27.546 13.9995 27.546Z" fill="#FFE7BB"/>
<path d="M15.78 1.85076C15.7157 1.91496 15.652 1.97978 15.5887 2.0451C14.6293 1.31519 13.622 0.657135 12.5723 0.0738227C13.0415 0.0251665 13.5176 -7.31945e-05 13.9996 -7.31945e-05C15.1725 -7.31945e-05 16.3113 0.148004 17.3988 0.425879C16.8317 0.865613 16.2898 1.34114 15.78 1.85076Z" fill="#FFE7BB"/>
<path d="M14 23.319C13.4164 23.319 12.9433 22.8458 12.9433 22.2622C12.9433 15.4839 7.59737 9.93077 0.900391 9.5972C1.12602 8.8848 1.40826 8.19742 1.74189 7.54021C5.13721 7.87455 8.2844 9.35702 10.7259 11.7985C13.5187 14.5914 15.0568 18.3075 15.0568 22.2622C15.0568 22.8458 14.5836 23.319 14 23.319Z" fill="#FFE7BB"/>
</g>
<path d="M41.72 9.24C40.84 9.24 40.0933 8.93333 39.48 8.32C38.8667 7.70666 38.56 6.97333 38.56 6.12C38.56 5.24 38.8667 4.49333 39.48 3.88C40.0933 3.26666 40.84 2.96 41.72 2.96C42.5733 2.96 43.3067 3.26666 43.92 3.88C44.56 4.49333 44.88 5.24 44.88 6.12C44.88 6.97333 44.56 7.70666 43.92 8.32C43.3067 8.93333 42.5733 9.24 41.72 9.24ZM36.48 33C36.2933 33 36.2 32.84 36.2 32.52C36.2 32.2267 36.2933 32.08 36.48 32.08H36.92C37.6933 32.08 38.2933 31.96 38.72 31.72C39.1467 31.4533 39.36 30.9067 39.36 30.08V17.76C39.36 16.9067 39.1733 16.3467 38.8 16.08C38.4533 15.7867 37.8267 15.6133 36.92 15.56C36.68 15.56 36.56 15.36 36.56 14.96C36.56 14.7733 36.64 14.6667 36.8 14.64C37.0667 14.56 39.6533 14.04 44.56 13.08V30.08C44.56 30.9067 44.7733 31.4533 45.2 31.72C45.6533 31.96 46.2667 32.08 47.04 32.08H47.48C47.6667 32.08 47.76 32.2267 47.76 32.52C47.76 32.84 47.6667 33 47.48 33H36.48ZM60.7053 33.52C58.7053 33.52 56.9186 33.04 55.3453 32.08C53.7986 31.12 52.5986 29.8533 51.7453 28.28C50.892 26.7067 50.4653 25.04 50.4653 23.28C50.4653 21.4933 50.892 19.8267 51.7453 18.28C52.5986 16.7067 53.7986 15.4533 55.3453 14.52C56.9186 13.56 58.7053 13.08 60.7053 13.08C62.7053 13.08 64.4786 13.56 66.0253 14.52C67.5986 15.4533 68.812 16.7067 69.6653 18.28C70.5186 19.8267 70.9453 21.4933 70.9453 23.28C70.9453 25.04 70.5186 26.7067 69.6653 28.28C68.812 29.8533 67.5986 31.12 66.0253 32.08C64.4786 33.04 62.7053 33.52 60.7053 33.52ZM60.7053 32.52C62.252 32.52 63.4386 31.6267 64.2653 29.84C65.1186 28.0267 65.5453 25.84 65.5453 23.28C65.5453 20.6933 65.1186 18.52 64.2653 16.76C63.4386 15 62.252 14.12 60.7053 14.12C59.1586 14.12 57.972 15 57.1453 16.76C56.3186 18.52 55.9053 20.6933 55.9053 23.28C55.9053 25.84 56.3186 28.0267 57.1453 29.84C57.972 31.6267 59.1586 32.52 60.7053 32.52ZM87.58 13.04C88.7267 13.04 89.6467 13.36 90.34 14C91.06 14.64 91.42 15.3733 91.42 16.2C91.42 16.84 91.1933 17.3733 90.74 17.8C90.3133 18.2267 89.7667 18.44 89.1 18.44C88.6467 18.44 88.2467 18.3467 87.9 18.16C87.5533 17.9467 87.1533 17.6533 86.7 17.28C86.3267 16.9333 85.9933 16.68 85.7 16.52C85.4067 16.3333 85.0867 16.24 84.74 16.24C84.1267 16.24 83.5667 16.5733 83.06 17.24C82.5533 17.9067 82.1133 18.7867 81.74 19.88V30.08C81.74 30.9067 81.9267 31.4533 82.3 31.72C82.6733 31.96 83.2333 32.08 83.98 32.08H84.42C84.6067 32.08 84.7 32.24 84.7 32.56C84.7 32.8533 84.6067 33 84.42 33H73.9C73.7133 33 73.62 32.8533 73.62 32.56C73.62 32.24 73.7133 32.08 73.9 32.08H74.3C75.0467 32.08 75.6067 31.96 75.98 31.72C76.3533 31.4533 76.54 30.9067 76.54 30.08V17.72C76.54 16.8667 76.3533 16.3067 75.98 16.04C75.6067 15.7467 74.98 15.5867 74.1 15.56C73.9667 15.5333 73.8733 15.4533 73.82 15.32C73.7667 15.1867 73.74 15.0533 73.74 14.92C73.74 14.76 73.82 14.6667 73.98 14.64C74.22 14.56 76.8067 14.04 81.74 13.08V17.72C82.46 16.28 83.3267 15.1467 84.34 14.32C85.38 13.4667 86.46 13.04 87.58 13.04ZM98.2434 9.24C97.3634 9.24 96.6168 8.93333 96.0034 8.32C95.3901 7.70666 95.0834 6.97333 95.0834 6.12C95.0834 5.24 95.3901 4.49333 96.0034 3.88C96.6168 3.26666 97.3634 2.96 98.2434 2.96C99.0968 2.96 99.8301 3.26666 100.443 3.88C101.083 4.49333 101.403 5.24 101.403 6.12C101.403 6.97333 101.083 7.70666 100.443 8.32C99.8301 8.93333 99.0968 9.24 98.2434 9.24ZM93.0034 33C92.8168 33 92.7234 32.84 92.7234 32.52C92.7234 32.2267 92.8168 32.08 93.0034 32.08H93.4434C94.2168 32.08 94.8168 31.96 95.2434 31.72C95.6701 31.4533 95.8834 30.9067 95.8834 30.08V17.76C95.8834 16.9067 95.6968 16.3467 95.3234 16.08C94.9768 15.7867 94.3501 15.6133 93.4434 15.56C93.2034 15.56 93.0834 15.36 93.0834 14.96C93.0834 14.7733 93.1634 14.6667 93.3234 14.64C93.5901 14.56 96.1768 14.04 101.083 13.08V30.08C101.083 30.9067 101.297 31.4533 101.723 31.72C102.177 31.96 102.79 32.08 103.563 32.08H104.003C104.19 32.08 104.283 32.2267 104.283 32.52C104.283 32.84 104.19 33 104.003 33H93.0034Z" fill="#FFE7BB"/>
<defs>
<clipPath id="clip0_394_22521">
<rect width="28" height="36.0001" fill="white" transform="matrix(1 0 0 -1 0 36)"/>
</clipPath>
</defs>
</svg>
