<svg width="20" height="20" viewBox="0 0 20 20" fill="none" xmlns="http://www.w3.org/2000/svg">
<g clip-path="url(#clip0_1_5057)">
<path d="M17.5642 0H2.43582C1.0927 0 0 1.0927 0 2.43582V17.5641C0 18.9073 1.0927 20 2.43582 20H10.1898C10.516 20 10.7804 19.7356 10.7804 19.4095V12.2489C10.7804 11.9228 10.516 11.6584 10.1898 11.6584H8.06715V9.97738H10.1898C10.516 9.97738 10.7804 9.71297 10.7804 9.38684V6.99652C10.7804 5.70293 11.8328 4.65051 13.1264 4.65051H15.1746V6.33148H13.1264C12.7598 6.33148 12.4614 6.62988 12.4614 6.99656V9.38688C12.4614 9.71301 12.7258 9.97742 13.052 9.97742H15.1746V11.6584H13.052C12.7258 11.6584 12.4614 11.9228 12.4614 12.2489V19.4095C12.4614 19.7356 12.7258 20 13.052 20H17.5642C18.9073 20 20 18.9073 20 17.5642V2.43582C20 1.0927 18.9073 0 17.5642 0ZM18.8189 17.5642C18.8189 18.2561 18.2561 18.8189 17.5641 18.8189H13.6425H13.6424V12.8395H15.7651C16.0912 12.8395 16.3557 12.575 16.3557 12.2489V9.38688C16.3557 9.06074 16.0912 8.79633 15.7651 8.79633H13.6424V7.51258H15.7651C16.0912 7.51258 16.3557 7.24816 16.3557 6.92203V4.06C16.3557 3.73387 16.0912 3.46945 15.7651 3.46945H13.1264C11.1816 3.46945 9.5993 5.05172 9.5993 6.99656V8.79633H7.4766C7.15047 8.79633 6.88605 9.06074 6.88605 9.38688V12.2489C6.88605 12.575 7.15047 12.8395 7.4766 12.8395H9.5993V18.8189H2.43582C1.74395 18.8189 1.18105 18.2561 1.18105 17.5641V2.43582C1.18105 1.74395 1.74391 1.18105 2.43582 1.18105H17.5641C18.256 1.18105 18.8189 1.74391 18.8189 2.43582V17.5642Z" fill="#024430"/>
</g>
<defs>
<clipPath id="clip0_1_5057">
<rect width="20" height="20" fill="white"/>
</clipPath>
</defs>
</svg>
