<svg width="20" height="20" viewBox="0 0 20 20" fill="none" xmlns="http://www.w3.org/2000/svg">
<g clip-path="url(#clip0_1_5075)">
<path d="M5.89844 7.07031H3.55469C3.23105 7.07031 2.96875 7.33261 2.96875 7.65625V17.0312C2.96875 17.3549 3.23105 17.6172 3.55469 17.6172H5.89844C6.22208 17.6172 6.48438 17.3549 6.48438 17.0312V7.65625C6.48438 7.33261 6.22208 7.07031 5.89844 7.07031ZM5.3125 16.4453H4.14062V8.24219H5.3125V16.4453Z" fill="#024430"/>
<path d="M4.72656 2.38281C3.75732 2.38281 2.96875 3.17139 2.96875 4.14062C2.96875 5.10986 3.75732 5.89844 4.72656 5.89844C5.6958 5.89844 6.48438 5.10986 6.48438 4.14062C6.48438 3.17139 5.6958 2.38281 4.72656 2.38281ZM4.72656 4.72656C4.40353 4.72656 4.14062 4.46365 4.14062 4.14062C4.14062 3.8176 4.40353 3.55469 4.72656 3.55469C5.04959 3.55469 5.3125 3.8176 5.3125 4.14062C5.3125 4.46365 5.04959 4.72656 4.72656 4.72656Z" fill="#024430"/>
<path d="M13.8922 7.10668C12.9349 6.95134 11.955 7.13353 11.1681 7.5887C11.1343 7.29695 10.8865 7.07051 10.5859 7.07051H8.24219C7.91855 7.07051 7.65625 7.33281 7.65625 7.65645V17.0314C7.65625 17.3551 7.91855 17.6174 8.24219 17.6174H10.5859C10.9096 17.6174 11.1719 17.3551 11.1719 17.0314V11.758C11.1719 11.1118 11.6975 10.5861 12.3438 10.5861C12.99 10.5861 13.5156 11.1118 13.5156 11.758V17.0314C13.5156 17.3551 13.7779 17.6174 14.1016 17.6174H16.4453C16.769 17.6174 17.0312 17.3551 17.0312 17.0314V10.7244C17.0312 8.9745 15.7945 7.41536 13.8922 7.10668ZM15.8594 16.4455H14.6875V11.758C14.6875 10.4656 13.6362 9.41426 12.3438 9.41426C11.0513 9.41426 10 10.4656 10 11.758V16.4455H8.82812V8.24239H10V8.82832C10 9.06529 10.1428 9.27892 10.3618 9.36971C10.5806 9.46034 10.8327 9.41014 11.0002 9.2426L11.2735 8.96932C11.8488 8.39421 12.803 8.11711 13.7045 8.26344C15.0838 8.48729 15.8594 9.58943 15.8594 10.7244V16.4455Z" fill="#024430"/>
<path d="M17.0312 0H2.96875C1.34827 0 0 1.34933 0 2.96875V17.0312C0 18.6517 1.34933 20 2.96875 20H17.0312C18.6517 20 20 18.6507 20 17.0312V2.96875C20 1.34827 18.6507 0 17.0312 0ZM18.8281 17.0312C18.8281 18.0052 18.0052 18.8281 17.0312 18.8281H2.96875C1.99478 18.8281 1.17188 18.0052 1.17188 17.0312V2.96875C1.17188 1.99478 1.99478 1.17188 2.96875 1.17188H17.0312C18.0052 1.17188 18.8281 1.99478 18.8281 2.96875V17.0312Z" fill="#024430"/>
</g>
<defs>
<clipPath id="clip0_1_5075">
<rect width="20" height="20" fill="white"/>
</clipPath>
</defs>
</svg>
