<svg width="20" height="20" viewBox="0 0 20 20" fill="none" xmlns="http://www.w3.org/2000/svg">
<g clip-path="url(#clip0_1_5065)">
<path d="M14.5173 0H5.4827C2.45953 0 0 2.45953 0 5.48273V14.5173C0 17.5405 2.45953 20 5.4827 20H14.5173C17.5405 20 20 17.5405 20 14.5173V5.48273C20 2.45953 17.5405 0 14.5173 0ZM18.8189 14.5173C18.8189 16.8892 16.8893 18.8189 14.5173 18.8189H5.4827C3.11078 18.8189 1.18109 16.8893 1.18109 14.5173V5.48273C1.18109 3.11078 3.11078 1.18109 5.4827 1.18109H14.5173C16.8893 1.18109 18.8189 3.11078 18.8189 5.48273V14.5173Z" fill="#024430"/>
<path d="M10.0002 4.51465C6.97547 4.51465 4.51465 6.97547 4.51465 10.0002C4.51465 13.025 6.97543 15.4858 10.0002 15.4858C13.025 15.4858 15.4859 13.025 15.4859 10.0002C15.4859 6.97543 13.025 4.51465 10.0002 4.51465ZM10.0002 14.3048C7.62672 14.3048 5.6957 12.3737 5.6957 10.0002C5.6957 7.62668 7.62672 5.69566 10.0002 5.69566C12.3738 5.69566 14.3048 7.62672 14.3048 10.0002C14.3048 12.3738 12.3738 14.3048 10.0002 14.3048Z" fill="#024430"/>
<path d="M15.8136 2.51953C14.8946 2.51953 14.147 3.26723 14.147 4.18621C14.147 5.1052 14.8946 5.85285 15.8136 5.85285C16.7326 5.85285 17.4803 5.10516 17.4803 4.18617C17.4803 3.26719 16.7326 2.51953 15.8136 2.51953ZM15.8136 4.67172C15.5459 4.67172 15.3281 4.45391 15.3281 4.18617C15.3281 3.91844 15.5459 3.70062 15.8136 3.70062C16.0813 3.70062 16.2992 3.91848 16.2992 4.18617C16.2992 4.45387 16.0813 4.67172 15.8136 4.67172Z" fill="#024430"/>
</g>
<defs>
<clipPath id="clip0_1_5065">
<rect width="20" height="20" fill="white"/>
</clipPath>
</defs>
</svg>
