<svg width="12" height="12" viewBox="0 0 12 12" fill="none" xmlns="http://www.w3.org/2000/svg">
<g clip-path="url(#clip0_26_2193)">
<path d="M11.4485 4.58597C11.3733 4.35354 11.1672 4.18846 10.9233 4.16648L7.6103 3.86566L6.30026 0.799381C6.20367 0.574662 5.98368 0.429199 5.73925 0.429199C5.49483 0.429199 5.27484 0.574662 5.17825 0.799906L3.86821 3.86566L0.554701 4.16648C0.311242 4.18899 0.105615 4.35354 0.0300369 4.58597C-0.0455407 4.81839 0.0242569 5.07332 0.208428 5.23403L2.71265 7.43024L1.97421 10.6831C1.92018 10.9222 2.01301 11.1695 2.21145 11.3129C2.31812 11.39 2.44292 11.4292 2.56876 11.4292C2.67727 11.4292 2.7849 11.3999 2.88149 11.3421L5.73925 9.63417L8.59597 11.3421C8.80501 11.4679 9.06852 11.4564 9.26653 11.3129C9.46506 11.169 9.55781 10.9217 9.50377 10.6831L8.76534 7.43024L11.2696 5.23446C11.4537 5.07332 11.524 4.81883 11.4485 4.58597Z" fill="#FFD166"/>
</g>
<defs>
<clipPath id="clip0_26_2193">
<rect width="12" height="12" fill="white"/>
</clipPath>
</defs>
</svg>
