<svg width="20" height="20" viewBox="0 0 20 20" fill="none" xmlns="http://www.w3.org/2000/svg">
<g clip-path="url(#clip0_1_5061)">
<path d="M19.9116 4.27886C19.7934 4.08652 19.577 3.97749 19.3518 3.99702L18.3545 4.0839L19.3078 2.16229C19.4213 1.93343 19.3764 1.65768 19.1963 1.47655C19.016 1.29542 18.7406 1.24924 18.5112 1.36159L15.9882 2.59718C14.4295 1.77428 12.4821 2.01854 11.1421 3.23921C10.0238 4.25796 9.43591 5.82464 9.54552 7.38699C6.62251 7.09402 4.14828 5.42093 2.68523 2.71757C2.58816 2.53823 2.40617 2.42093 2.20277 2.40651C1.99898 2.39233 1.80265 2.48265 1.68132 2.64659C0.7739 3.87245 0.710228 5.55324 1.4216 6.93601C1.2255 6.88648 1.01683 6.81945 0.785424 6.74215C0.587181 6.67586 0.368626 6.71832 0.209524 6.85394C0.0504223 6.98957 -0.0260622 7.19859 0.00796127 7.40488C0.289446 9.11145 1.2846 10.423 2.85664 11.1993C2.65195 11.2706 2.44308 11.3285 2.2307 11.3728C2.01968 11.4168 1.84882 11.5711 1.78379 11.7766C1.71875 11.9821 1.76961 12.2067 1.91687 12.3641C3.04894 13.5742 4.68426 14.1698 5.84582 14.4555C4.52512 15.4897 3.09945 15.6628 1.02781 15.5917C0.788002 15.5844 0.567064 15.7195 0.466243 15.9369C0.365462 16.1543 0.404564 16.411 0.565619 16.5885C1.42921 17.5404 4.57555 18.6138 7.88306 18.6942C8.01388 18.6974 8.14731 18.6991 8.28356 18.6991C10.6059 18.6991 13.6751 18.2013 15.8781 15.9983C17.5455 14.3308 18.5885 12.4113 18.9779 10.2931C19.2925 8.58223 19.0937 7.21222 18.9982 6.55379C18.9911 6.50539 18.9836 6.45402 18.9775 6.4091L19.9104 4.90558C20.0294 4.71378 20.0299 4.4712 19.9116 4.27886ZM17.8176 6.72504C17.9946 7.94473 18.5331 11.6563 15.0346 15.1548C13.001 17.1883 10.039 17.5535 7.91204 17.5018C6.09715 17.4577 4.47379 17.1106 3.29723 16.7147C3.77492 16.6561 4.20063 16.5657 4.60246 16.4408C5.71024 16.0965 6.6461 15.4769 7.54759 14.491C7.69786 14.3267 7.74403 14.0924 7.66743 13.8833C7.59083 13.6743 7.40411 13.5253 7.18325 13.497C6.61454 13.4241 4.90571 13.1365 3.56008 12.2083C3.94785 12.0497 4.32184 11.8512 4.67895 11.6143C4.87485 11.4843 4.97617 11.2514 4.93758 11.0195C4.89903 10.7876 4.72789 10.5999 4.50047 10.5403C3.3991 10.2516 2.06988 9.60547 1.45695 8.16316C1.84836 8.23176 2.27394 8.24836 2.72785 8.1466C2.93824 8.09949 3.10683 7.94246 3.16871 7.7359C3.23062 7.52933 3.17625 7.30543 3.02648 7.15035C2.26383 6.36043 1.97863 5.22206 2.22332 4.24796C3.02465 5.4191 4.03984 6.40472 5.20297 7.13344C6.6909 8.06566 8.42755 8.58086 10.2252 8.62317C10.4082 8.62703 10.5836 8.54719 10.7001 8.40547C10.8165 8.26379 10.8613 8.07641 10.8215 7.89738C10.5122 6.50695 10.9533 5.02468 11.9454 4.12105C12.9743 3.18374 14.4949 3.04155 15.6433 3.7755C15.8186 3.88757 16.0398 3.90011 16.2268 3.80855L17.4589 3.20511L16.814 4.50515C16.7182 4.69831 16.734 4.92816 16.8556 5.10624C16.9771 5.28433 17.1849 5.3832 17.4 5.36433L18.2689 5.28867L17.8686 5.93379C17.7343 6.15031 17.7621 6.34242 17.8176 6.72504Z" fill="#024430"/>
</g>
<defs>
<clipPath id="clip0_1_5061">
<rect width="20" height="20" fill="white"/>
</clipPath>
</defs>
</svg>
