<svg width="20" height="20" viewBox="0 0 20 20" fill="none" xmlns="http://www.w3.org/2000/svg">
<g clip-path="url(#clip0_1_5080)">
<path d="M13.0786 9.10131L8.66015 6.68372C8.40609 6.54471 8.1058 6.5499 7.85678 6.69745C7.6076 6.84516 7.45898 7.10608 7.45898 7.39569V12.1894C7.45898 12.4776 7.60669 12.7381 7.85419 12.8859C7.98343 12.9631 8.12671 13.0019 8.27029 13.0019C8.40182 13.0019 8.53366 12.9694 8.65496 12.9041L13.0736 10.5282C13.3359 10.387 13.4996 10.1143 13.5008 9.81633C13.5019 9.51833 13.3402 9.24444 13.0786 9.10131ZM8.63101 11.5863V8.0036L11.9333 9.81054L8.63101 11.5863Z" fill="#024430"/>
<path d="M19.8528 5.99715L19.8519 5.98799C19.835 5.82701 19.6664 4.39513 18.9703 3.66683C18.1657 2.81021 17.2535 2.70615 16.8148 2.65625C16.7785 2.65213 16.7452 2.64831 16.7155 2.64435L16.6805 2.64069C14.0365 2.44843 10.0434 2.42218 10.0035 2.42203L9.99996 2.42188L9.99645 2.42203C9.95647 2.42218 5.96342 2.44843 3.29558 2.64069L3.26033 2.64435C3.23195 2.64816 3.20067 2.65167 3.16664 2.65564C2.73299 2.70569 1.83059 2.8099 1.02371 3.6975C0.360716 4.41802 0.169067 5.81923 0.149383 5.9767L0.147094 5.99715C0.141143 6.06413 0 7.65882 0 9.25977V10.7563C0 12.3573 0.141143 13.952 0.147094 14.0191L0.148162 14.0292C0.165099 14.1876 0.333556 15.5932 1.02645 16.3218C1.78298 17.1498 2.73955 17.2593 3.25408 17.3182C3.33541 17.3275 3.40544 17.3355 3.4532 17.3438L3.49944 17.3503C5.02607 17.4955 9.81258 17.5671 10.0155 17.57L10.0216 17.5701L10.0277 17.57C10.0677 17.5698 14.0606 17.5436 16.7046 17.3513L16.7396 17.3477C16.773 17.3432 16.8105 17.3393 16.8517 17.335C17.283 17.2892 18.1805 17.1942 18.9762 16.3186C19.6392 15.5979 19.831 14.1967 19.8505 14.0394L19.8528 14.019C19.8588 13.9518 20.0001 12.3573 20.0001 10.7563V9.25977C19.9999 7.65882 19.8588 6.06429 19.8528 5.99715ZM18.8279 10.7563C18.8279 12.2381 18.6985 13.7641 18.6863 13.9042C18.6366 14.2901 18.4344 15.1766 18.1113 15.5277C17.6133 16.0757 17.1017 16.13 16.7281 16.1695C16.683 16.1743 16.6412 16.1788 16.6033 16.1836C14.046 16.3685 10.2037 16.3969 10.0267 16.398C9.82815 16.3951 5.11167 16.3229 3.63158 16.1854C3.55574 16.173 3.4738 16.1636 3.38744 16.1538C2.94936 16.1036 2.34969 16.0349 1.88857 15.5277L1.87774 15.5162C1.56036 15.1855 1.36398 14.3565 1.31408 13.9088C1.30477 13.8029 1.17202 12.2589 1.17202 10.7563V9.25977C1.17202 7.77967 1.30111 6.25533 1.31362 6.11235C1.37298 5.65779 1.57897 4.82497 1.88857 4.48836C2.40188 3.92379 2.9431 3.86123 3.30107 3.81988C3.33525 3.81591 3.36714 3.81225 3.39659 3.80844C5.99119 3.62258 9.86111 3.59497 9.99996 3.5939C10.1388 3.59481 14.0074 3.62258 16.5789 3.80844C16.6105 3.8124 16.645 3.81637 16.6821 3.82064C17.0503 3.8626 17.6067 3.92608 18.1175 4.47082L18.1222 4.47585C18.4396 4.80651 18.6359 5.65001 18.6858 6.10671C18.6947 6.20665 18.8279 7.75404 18.8279 9.25977V10.7563Z" fill="#024430"/>
</g>
<defs>
<clipPath id="clip0_1_5080">
<rect width="20" height="19.9999" fill="white"/>
</clipPath>
</defs>
</svg>
